<?xml version="1.0" encoding="UTF-8" standalone="no"?>
<svg
   viewBox="0 0 67 57"
   version="1.1"
   x="0px"
   y="0px"
   id="svg2"
   sodipodi:docname="noun-camera-3376446.svg"
   inkscape:version="1.4.2 (2aeb623e1d, 2025-05-12)"
   xmlns:inkscape="http://www.inkscape.org/namespaces/inkscape"
   xmlns:sodipodi="http://sodipodi.sourceforge.net/DTD/sodipodi-0.dtd"
   xmlns="http://www.w3.org/2000/svg"
   xmlns:svg="http://www.w3.org/2000/svg">
  <defs
     id="defs2" />
  <sodipodi:namedview
     id="namedview2"
     pagecolor="#ffffff"
     bordercolor="#999999"
     borderopacity="1"
     inkscape:showpageshadow="2"
     inkscape:pageopacity="0"
     inkscape:pagecheckerboard="0"
     inkscape:deskcolor="#d1d1d1"
     inkscape:zoom="6.776"
     inkscape:cx="32.319953"
     inkscape:cy="48.479929"
     inkscape:window-width="1920"
     inkscape:window-height="1011"
     inkscape:window-x="0"
     inkscape:window-y="0"
     inkscape:window-maximized="1"
     inkscape:current-layer="svg2" />

  <g
     stroke="none"
     stroke-width="1"
     fill="current"
     fill-rule="evenodd"
     id="g1"
     transform="translate(-17,-22)">
    <path
       d="m 61,47 c 1.104569,0 2,0.895431 2,2 v 28 c 0,1.104569 -0.895431,2 -2,2 H 19 c -1.10457,0 -2,-0.895431 -2,-2 V 49 c 0,-1.104569 0.89543,-2 2,-2 z m 22.897367,4.142396 C 83.965344,51.346329 84,51.559888 84,51.774852 v 22.450296 c 0,1.10457 -0.895431,2 -2,2 -0.214964,0 -0.428523,-0.03466 -0.632456,-0.102633 l -14,-4.666667 C 66.55086,71.18362 66,70.419342 66,69.558482 V 56.441518 c 0,-0.86086 0.55086,-1.625138 1.367544,-1.897366 l 14,-4.666667 c 1.047887,-0.349295 2.180527,0.217025 2.529823,1.264911 z M 28,22 c 6.075132,0 11,4.924868 11,11 0,6.075132 -4.924868,11 -11,11 -6.075132,0 -11,-4.924868 -11,-11 0,-6.075132 4.924868,-11 11,-11 z m 22,6 c 4.418278,0 8,3.581722 8,8 0,4.418278 -3.581722,8 -8,8 -4.418278,0 -8,-3.581722 -8,-8 0,-4.418278 3.581722,-8 8,-8 z"
       id="path1" />
  </g>
</svg>
