<?xml version="1.0" encoding="UTF-8" standalone="no"?>
<svg
   version="1.1"
   x="0px"
   y="0px"
   viewBox="0 0 18.862 18.86775"
   xml:space="preserve"
   id="svg3"
   sodipodi:docname="edit.svg"
   width="18.862"
   height="18.86775"
   inkscape:version="1.4.2 (2aeb623e1d, 2025-05-12)"
   xmlns:inkscape="http://www.inkscape.org/namespaces/inkscape"
   xmlns:sodipodi="http://sodipodi.sourceforge.net/DTD/sodipodi-0.dtd"
   xmlns="http://www.w3.org/2000/svg"
   xmlns:svg="http://www.w3.org/2000/svg"><defs
     id="defs3" /><sodipodi:namedview
     id="namedview3"
     pagecolor="#ffffff"
     bordercolor="#999999"
     borderopacity="1"
     inkscape:showpageshadow="2"
     inkscape:pageopacity="0"
     inkscape:pagecheckerboard="0"
     inkscape:deskcolor="#d1d1d1"
     inkscape:zoom="14.116667"
     inkscape:cx="9.2089728"
     inkscape:cy="21.286895"
     inkscape:window-width="1920"
     inkscape:window-height="1011"
     inkscape:window-x="0"
     inkscape:window-y="0"
     inkscape:window-maximized="1"
     inkscape:current-layer="svg3" /><path
     d="m 17.038,16.17975 c 0,0.881 -0.716,1.624 -1.597,1.624 H 2.662 c -0.881,0 -1.597,-0.743 -1.597,-1.624 v -12.779 c 0,-0.881 0.716,-1.571 1.597,-1.571 h 7.454 v -1.064 H 2.662 C 1.194,0.76575 0,1.93375 0,3.40175 v 12.778 c 0,1.468 1.194,2.688 2.662,2.688 H 15.44 c 1.468,0 2.662,-1.221 2.662,-2.688 v -7.428 h -1.065 v 7.428 z"
     id="path1" /><path
     d="m 18.238,0.60375 c -0.804,-0.805 -2.207,-0.805 -3.012,0 l -7.143,7.143 c -0.068,0.068 -0.117,0.154 -0.14,0.247 l -0.752,3.011 c -0.045,0.181 0.008,0.373 0.14,0.506 0.101,0.101 0.237,0.156 0.376,0.156 0.043,0 0.086,-0.005 0.129,-0.016 l 3.012,-0.753 c 0.094,-0.023 0.179,-0.072 0.247,-0.14 l 7.143,-7.143 c 0.402,-0.402 0.624,-0.937 0.624,-1.506 0,-0.569 -0.221,-1.103 -0.624,-1.505 z m -7.791,9.297 -2.008,0.502 0.502,-2.008 5.909,-5.909 1.506,1.506 z m 7.038,-7.039 -0.376,0.376 -1.506,-1.506 0.376,-0.376 c 0.402,-0.402 1.104,-0.402 1.506,0 0.201,0.201 0.312,0.468 0.312,0.753 0,0.285 -0.111,0.552 -0.312,0.753 z"
     id="path2" /></svg>
