<?xml version="1.0" encoding="UTF-8" standalone="no"?>
<svg
   viewBox="-0.42333333 -0.84666669 5.237543 6.1051726"
   version="1.1"
   x="0px"
   y="0px"
   id="svg2"
   sodipodi:docname="flyer.svg"

   xmlns:inkscape="http://www.inkscape.org/namespaces/inkscape"
   xmlns:sodipodi="http://sodipodi.sourceforge.net/DTD/sodipodi-0.dtd"
   xmlns="http://www.w3.org/2000/svg"
   xmlns:svg="http://www.w3.org/2000/svg">
  <defs
     id="defs2">
    <clipPath
       clipPathUnits="userSpaceOnUse"
       id="clipPath2">
      <rect
         style="fill:#000000;stroke:#000000;stroke-width:0;stroke-linejoin:bevel;paint-order:stroke fill markers"
         id="rect3"
         width="6.671783"
         height="8.5891581"
         x="1.5805255"
         y="-1.1329322" />
    </clipPath>
    <clipPath
       clipPathUnits="userSpaceOnUse"
       id="clipPath5">
      <rect
         style="fill:#000000;stroke:#000000;stroke-width:0;stroke-linejoin:bevel;paint-order:stroke fill markers"
         id="rect5"
         width="6.1892605"
         height="7.2145476"
         x="1.8234299"
         y="-5.2846616e-14" />
    </clipPath>
  </defs>
  <sodipodi:namedview
     id="namedview2"
     pagecolor="#ffffff"
     bordercolor="#999999"
     borderopacity="1"
     inkscape:showpageshadow="2"
     inkscape:pageopacity="0"
     inkscape:pagecheckerboard="0"
     inkscape:deskcolor="#d1d1d1"
     inkscape:zoom="64"
     inkscape:cx="1.484375"
     inkscape:cy="4.4296875"
     inkscape:window-width="1920"
     inkscape:window-height="1011"
     inkscape:window-x="0"
     inkscape:window-y="0"
     inkscape:window-maximized="1"
     inkscape:current-layer="g1" />
  <g
     display="inline"
     id="g1"
     transform="translate(-2.7226221,-1.4013542)">
    <path
       style="color:#000000;font-style:normal;font-variant:normal;font-weight:normal;font-stretch:normal;font-size:medium;line-height:normal;font-family:sans-serif;font-variant-ligatures:normal;font-variant-position:normal;font-variant-caps:normal;font-variant-numeric:normal;font-variant-alternates:normal;font-feature-settings:normal;text-indent:0;text-align:start;text-decoration:none;text-decoration-line:none;text-decoration-style:solid;text-decoration-color:#000000;letter-spacing:normal;word-spacing:normal;text-transform:none;writing-mode:lr-tb;direction:ltr;text-orientation:mixed;dominant-baseline:auto;baseline-shift:baseline;text-anchor:start;white-space:normal;shape-padding:0;clip-rule:nonzero;display:inline;overflow:visible;visibility:visible;opacity:1;isolation:auto;mix-blend-mode:normal;color-interpolation:sRGB;color-interpolation-filters:linearRGB;solid-color:#000000;solid-opacity:1;vector-effect:none;fill:#000000;fill-opacity:1;fill-rule:nonzero;stroke:none;stroke-width:0.529167;stroke-linecap:round;stroke-linejoin:round;stroke-miterlimit:4;stroke-dasharray:none;stroke-dashoffset:6.2;stroke-opacity:1;color-rendering:auto;image-rendering:auto;shape-rendering:auto;text-rendering:auto;enable-background:accumulate"
       d="M 2.0983204,8.4536706e-7 A 0.26460984,0.26460984 0 0 0 1.8327034,0.26561785 V 6.9489306 a 0.26460984,0.26460984 0 0 0 0.265617,0.2656168 h 5.648751 A 0.26460984,0.26460984 0 0 0 8.0126884,6.9489306 V 0.26561785 A 0.26460984,0.26460984 0 0 0 7.7470714,8.4536706e-7 Z M 5.5869964,1.1446338 a 0.26460984,0.26460984 0 0 1 0.0036,0 0.26460984,0.26460984 0 0 1 0.236162,0.1462445 l 1.185454,2.3750486 A 0.26460984,0.26460984 0 0 1 6.7760504,4.0488494 H 4.4030694 3.3132134 A 0.26460984,0.26460984 0 0 1 3.0770514,3.6659269 l 0.929659,-1.859318 a 0.26460984,0.26460984 0 0 1 0.212907,-0.1467609 0.26460984,0.26460984 0 0 1 0.259416,0.1467609 l 0.307991,0.6149496 0.565341,-1.1306802 A 0.26460984,0.26460984 0 0 1 5.5869964,1.1446338 Z M 0.69220543,1.2536713 a 0.26460982,0.26460982 0 0 0 -0.238229,0.2635496 v 6.6858969 a 0.26460982,0.26460982 0 0 0 0.26355,0.2635499 H 6.3678274 a 0.26460982,0.26460982 0 0 0 0.26355,-0.2635499 V 7.7437141 h -4.53099 c -0.434335,0.00167 -0.79855,-0.3625157 -0.79685,-0.7968504 V 1.2536713 H 0.71752643 a 0.26460982,0.26460982 0 0 0 -0.025321,0 z M 5.5906134,2.001946 4.8309704,3.519166 h 1.51722 z M 4.2428924,2.5156097 3.7411144,3.519166 h 0.497127 l 0.252698,-0.5053957 z m -0.603581,2.3316405 a 0.26460984,0.26460984 0 0 1 0.02739,0 h 2.290816 a 0.2648417,0.2648417 0 0 1 0,0.5296834 h -2.290816 a 0.26519555,0.26519555 0 0 1 -0.02739,-0.5296834 z"
       id="path1"
       clip-path="url(#clipPath5)"
       transform="matrix(0.84623083,0,0,0.84623083,0.7562461,0.5546875)" />
  </g>
</svg>
