<?xml version="1.0" encoding="UTF-8" standalone="no"?>
<svg
   version="1.1"
   x="0px"
   y="0px"
   viewBox="0 0 512 512"
   xml:space="preserve"
   id="svg2"
   sodipodi:docname="noun-folder-1988940.svg"
   inkscape:version="1.4.2 (2aeb623e1d, 2025-05-12)"
   xmlns:inkscape="http://www.inkscape.org/namespaces/inkscape"
   xmlns:sodipodi="http://sodipodi.sourceforge.net/DTD/sodipodi-0.dtd"
   xmlns="http://www.w3.org/2000/svg"
   xmlns:svg="http://www.w3.org/2000/svg"><defs
     id="defs2" /><sodipodi:namedview
     id="namedview2"
     pagecolor="#ffffff"
     bordercolor="#999999"
     borderopacity="1"
     inkscape:showpageshadow="2"
     inkscape:pageopacity="0"
     inkscape:pagecheckerboard="0"
     inkscape:deskcolor="#d1d1d1"
     inkscape:zoom="0.75443492"
     inkscape:cx="251.84412"
     inkscape:cy="398.31136"
     inkscape:window-width="1920"
     inkscape:window-height="1011"
     inkscape:window-x="0"
     inkscape:window-y="0"
     inkscape:window-maximized="1"
     inkscape:current-layer="svg2" /><g
     id="g1"><path
       d="m 86.5,439 h 339 c 27.6,0 49.5,-22.8 49.5,-50.4 V 184.9 C 475,157.3 453.1,135 425.5,135 H 282.3 L 267,102.1 C 258.8,84.6 241,73 221.7,73 H 86.5 C 58.9,73 36,95.8 36,123.4 v 265.2 c 0,27.6 22.9,50.4 50.5,50.4 z m 339,-284 c 16.5,0 29.5,13.4 29.5,29.9 v 203.7 c 0,16.5 -13,30.4 -29.5,30.4 H 86.5 C 70,419 56,405.2 56,388.6 V 155 h 218 v -0.3 c 1,0.1 1.3,0.3 1.9,0.3 z M 86.5,93 h 135.2 c 11.6,0 22.3,7 27.2,17.5 L 260.2,135 H 56 V 123.4 C 56,106.8 70,93 86.5,93 Z"
       id="path1" /></g></svg>
