<?xml version="1.0" encoding="UTF-8" standalone="no"?>
<svg
   version="1.1"
   viewBox="-5 -10 110 110"
   id="svg6"
   sodipodi:docname="noun-property-7158739.svg"
   width="110"
   height="110"
   inkscape:version="1.4.2 (2aeb623e1d, 2025-05-12)"
   xmlns:inkscape="http://www.inkscape.org/namespaces/inkscape"
   xmlns:sodipodi="http://sodipodi.sourceforge.net/DTD/sodipodi-0.dtd"
   xmlns="http://www.w3.org/2000/svg"
   xmlns:svg="http://www.w3.org/2000/svg">
  <defs
     id="defs6" />
  <sodipodi:namedview
     id="namedview6"
     pagecolor="#ffffff"
     bordercolor="#999999"
     borderopacity="1"
     inkscape:showpageshadow="2"
     inkscape:pageopacity="0"
     inkscape:pagecheckerboard="0"
     inkscape:deskcolor="#d1d1d1"
     inkscape:zoom="3.137037"
     inkscape:cx="65.348288"
     inkscape:cy="82.721369"
     inkscape:window-width="1920"
     inkscape:window-height="1011"
     inkscape:window-x="0"
     inkscape:window-y="0"
     inkscape:window-maximized="1"
     inkscape:current-layer="svg6" />
  <path
     d="m 92.18527,0.0757 h -53.125 c -1.5078,0 -2.7344,1.2266 -2.7344,2.7344 v 3.125 c 0,1.5078 1.2266,2.7344 2.7344,2.7344 h 0.39062 v 19.883 l -2.5195,-1.8672 c -1.5312,-1.1328 -3.5859,-1.1328 -5.1133,0 l -25,18.52 c -1.0898,0.80859 -1.7383,2.1016 -1.7383,3.4531 v 36.969 c 0,2.3711 1.9258,4.2969 4.2969,4.2969 h 79.688 c 1.5078,0 2.7344,-1.2266 2.7344,-2.7344 l -0.0039,-78.52 h 0.39062 c 1.5078,0 2.7344,-1.2266 2.7344,-2.7344 v -3.125 c 0,-1.5078 -1.2266,-2.7344 -2.7344,-2.7344 z m -69.141,87.5 v -28.906 h 22.656 v 28.906 z m 25,0 v -30.078 c 0,-0.64844 -0.52344,-1.1719 -1.1719,-1.1719 h -25 c -0.64844,0 -1.1719,0.52344 -1.1719,1.1719 v 30.078 h -11.328 c -1.0781,0 -1.9531,-0.875 -1.9531,-1.9531 v -36.969 c 0,-0.61328 0.29688,-1.2031 0.78906,-1.5703 l 25,-18.52 c 0.69531,-0.51562 1.6289,-0.51562 2.3242,0 l 25,18.52 c 0.49609,0.36719 0.79297,0.95703 0.79297,1.5703 v 36.969 c 0,1.0781 -0.875,1.9531 -1.9531,1.9531 z m 4.6875,-49.188 v -4.3281 c 0,-0.21094 0.17969,-0.39062 0.39062,-0.39062 h 6.25 c 0.21094,0 0.39062,0.17969 0.39062,0.39062 v 4.6875 c 0,0.21094 -0.17969,0.39062 -0.39062,0.39062 h -5.6289 z m 10.445,49.188 c 0.30469,-0.58984 0.49219,-1.2461 0.49219,-1.9531 v -17.578 h 11.719 v 19.531 z m 26.273,-0.39062 c 0,0.21094 -0.17969,0.39062 -0.39062,0.39062 h -11.328 v -20.703 c 0,-0.64844 -0.52344,-1.1719 -1.1719,-1.1719 h -12.891 v -17.047 c 0,-1.3516 -0.64844,-2.6445 -1.7383,-3.4531 l -5.0234,-3.7188 h 2.4648 c 1.5078,0 2.7344,-1.2266 2.7344,-2.7344 V 34.06 c 0,-1.5078 -1.2266,-2.7344 -2.7344,-2.7344 h -6.25 c -1.5078,0 -2.7344,1.2266 -2.7344,2.7344 v 2.5938 l -8.5938,-6.3672 V 8.6696 h 47.656 z m 3.125,-81.25 c 0,0.21484 -0.17578,0.39062 -0.39062,0.39062 h -53.125 c -0.21484,0 -0.39062,-0.17578 -0.39062,-0.39062 v -3.125 c 0,-0.21484 0.17578,-0.39062 0.39062,-0.39062 h 53.125 c 0.21484,0 0.39062,0.17578 0.39062,0.39062 z"
     id="path1" />
  <path
     d="m 71.875,46.484 h 6.25 c 1.5078,0 2.7344,-1.2266 2.7344,-2.7344 v -4.6875 c 0,-1.5078 -1.2266,-2.7344 -2.7344,-2.7344 h -6.25 c -1.5078,0 -2.7344,1.2266 -2.7344,2.7344 v 4.6875 c 0,1.5078 1.2266,2.7344 2.7344,2.7344 z m -0.39062,-7.4219 c 0,-0.21484 0.17578,-0.39062 0.39062,-0.39062 h 6.25 c 0.21484,0 0.39062,0.17578 0.39062,0.39062 v 4.6875 c 0,0.21484 -0.17578,0.39062 -0.39062,0.39062 h -6.25 c -0.21484,0 -0.39062,-0.17578 -0.39062,-0.39062 z"
     id="path2" />
  <path
     d="m 71.875,32.422 h 6.25 c 1.5078,0 2.7344,-1.2266 2.7344,-2.7344 v -4.6875 c 0,-1.5078 -1.2266,-2.7344 -2.7344,-2.7344 h -6.25 c -1.5078,0 -2.7344,1.2266 -2.7344,2.7344 v 4.6875 c 0,1.5078 1.2266,2.7344 2.7344,2.7344 z m -0.39062,-7.4219 c 0,-0.21484 0.17578,-0.39062 0.39062,-0.39062 h 6.25 c 0.21484,0 0.39062,0.17578 0.39062,0.39062 v 4.6875 c 0,0.21484 -0.17578,0.39062 -0.39062,0.39062 h -6.25 c -0.21484,0 -0.39062,-0.17578 -0.39062,-0.39062 z"
     id="path3" />
  <path
     d="m 71.875,60.547 h 6.25 c 1.5078,0 2.7344,-1.2266 2.7344,-2.7344 v -4.6875 c 0,-1.5078 -1.2266,-2.7344 -2.7344,-2.7344 h -6.25 c -1.5078,0 -2.7344,1.2266 -2.7344,2.7344 v 4.6875 c 0,1.5078 1.2266,2.7344 2.7344,2.7344 z m -0.39062,-7.4219 c 0,-0.21484 0.17578,-0.39062 0.39062,-0.39062 h 6.25 c 0.21484,0 0.39062,0.17578 0.39062,0.39062 v 4.6875 c 0,0.21484 -0.17578,0.39062 -0.39062,0.39062 h -6.25 c -0.21484,0 -0.39062,-0.17578 -0.39062,-0.39062 z"
     id="path4" />
  <path
     d="m 53.125,32.422 h 6.25 c 1.5078,0 2.7344,-1.2266 2.7344,-2.7344 v -4.6875 c 0,-1.5078 -1.2266,-2.7344 -2.7344,-2.7344 h -6.25 c -1.5078,0 -2.7344,1.2266 -2.7344,2.7344 v 4.6875 c 0,1.5078 1.2266,2.7344 2.7344,2.7344 z m -0.39062,-7.4219 c 0,-0.21484 0.17578,-0.39062 0.39062,-0.39062 h 6.25 c 0.21484,0 0.39062,0.17578 0.39062,0.39062 v 4.6875 c 0,0.21484 -0.17578,0.39062 -0.39062,0.39062 h -6.25 c -0.21484,0 -0.39062,-0.17578 -0.39062,-0.39062 z"
     id="path5" />
</svg>
