<?xml version="1.0" encoding="UTF-8" standalone="no"?>
<svg
   viewBox="0 0 26 19"
   version="1.1"
   x="0px"
   y="0px"
   id="svg3"
   sodipodi:docname="noun-overview-697037.svg"

   inkscape:version="1.4.2 (2aeb623e1d, 2025-05-12)"
   xmlns:inkscape="http://www.inkscape.org/namespaces/inkscape"
   xmlns:sodipodi="http://sodipodi.sourceforge.net/DTD/sodipodi-0.dtd"
   xmlns="http://www.w3.org/2000/svg"
   xmlns:svg="http://www.w3.org/2000/svg">
  <defs
     id="defs3" />
  <sodipodi:namedview
     id="namedview3"
     pagecolor="#ffffff"
     bordercolor="#999999"
     borderopacity="1"
     inkscape:showpageshadow="2"
     inkscape:pageopacity="0"
     inkscape:pagecheckerboard="0"
     inkscape:deskcolor="#d1d1d1"
     inkscape:zoom="17.831579"
     inkscape:cx="9.2812869"
     inkscape:cy="6.2529516"
     inkscape:window-width="1920"
     inkscape:window-height="1011"
     inkscape:window-x="0"
     inkscape:window-y="0"
     inkscape:window-maximized="1"
     inkscape:current-layer="svg3" />
  <title
     id="title1">overview</title>
  <desc
     id="desc1">Created with Sketch.</desc>
  <g
     stroke="none"
     stroke-width="1"
     fill="current"
     fill-rule="evenodd"
   >
    <g
       transform="translate(-48,-47)"
       >
      <path
         d="M 48,48.997422 C 48,47.894276 48.894979,47 49.997005,47 h 22.00599 C 73.105911,47 74,47.890925 74,48.997422 V 64.002578 C 74,65.105724 73.105021,66 72.002995,66 H 49.997005 C 48.894089,66 48,65.109075 48,64.002578 Z m 2,1.010062 C 50,49.451066 50.439458,49 51.002462,49 H 70.997538 C 71.551183,49 72,49.44892 72,50.007484 V 62.992516 C 72,63.548934 71.560542,64 70.997538,64 H 51.002462 C 50.448817,64 50,63.55108 50,62.992516 Z m 3,2.992324 C 53,52.447629 53.455664,52 53.995398,52 h 8.009204 C 62.554345,52 63,52.443717 63,52.999808 v 3.000384 C 63,56.552371 62.544336,57 62.004602,57 H 53.995398 C 53.445655,57 53,56.556283 53,56.000192 Z M 53,58.5 C 53,58.223858 53.227653,58 53.50965,58 h 8.9807 C 62.771822,58 63,58.231934 63,58.5 63,58.776142 62.772347,59 62.49035,59 h -8.9807 C 53.228178,59 53,58.768066 53,58.5 Z m 0,2 C 53,60.223858 53.227653,60 53.50965,60 h 8.9807 C 62.771822,60 63,60.231934 63,60.5 63,60.776142 62.772347,61 62.49035,61 h -8.9807 C 53.228178,61 53,60.768066 53,60.5 Z M 66,56.999808 C 66,56.447629 66.44266,56 66.998957,56 h 1.002086 C 68.552752,56 69,56.443717 69,56.999808 v 3.000384 C 69,60.552371 68.55734,61 68.001043,61 H 66.998957 C 66.447248,61 66,60.556283 66,60.000192 Z M 66,53.5 C 66,52.671573 66.665797,52 67.5,52 68.328427,52 69,52.665797 69,53.5 69,54.328427 68.334203,55 67.5,55 66.671573,55 66,54.334203 66,53.5 Z"
         />
    </g>
  </g>
</svg>
