<?xml version="1.0" encoding="UTF-8" standalone="no"?>
<svg
   viewBox="0 0 24 24"
   x="0px"
   y="0px"
   version="1.1"
   id="svg2"
   sodipodi:docname="user-settings.svg"

   inkscape:version="1.4.2 (2aeb623e1d, 2025-05-12)"
   xmlns:inkscape="http://www.inkscape.org/namespaces/inkscape"
   xmlns:sodipodi="http://sodipodi.sourceforge.net/DTD/sodipodi-0.dtd"
   xmlns="http://www.w3.org/2000/svg"
   xmlns:svg="http://www.w3.org/2000/svg">
  <defs
     id="defs2" />
  <sodipodi:namedview
     id="namedview2"
     pagecolor="#ffffff"
     bordercolor="#999999"
     borderopacity="1"
     inkscape:showpageshadow="2"
     inkscape:pageopacity="0"
     inkscape:pagecheckerboard="0"
     inkscape:deskcolor="#d1d1d1"
     inkscape:zoom="19.963981"
     inkscape:cx="7.3632607"
     inkscape:cy="15.70328"
     inkscape:window-width="1920"
     inkscape:window-height="1011"
     inkscape:window-x="0"
     inkscape:window-y="0"
     inkscape:window-maximized="1"
     inkscape:current-layer="svg2" />
  <path
     d="m 20.501,16.25 h -0.672 c -0.087,-0.386 -0.241,-0.746 -0.447,-1.07 l 0.476,-0.477 c 0.293,-0.293 0.293,-0.768 0,-1.061 -0.293,-0.293 -0.768,-0.293 -1.061,0 l -0.476,0.477 c -0.325,-0.206 -0.684,-0.36 -1.07,-0.447 V 13 c 0,-0.414 -0.336,-0.75 -0.75,-0.75 -0.414,0 -0.75,0.336 -0.75,0.75 v 0.672 c -0.386,0.087 -0.745,0.241 -1.07,0.447 l -0.476,-0.477 c -0.293,-0.293 -0.768,-0.293 -1.061,0 -0.293,0.293 -0.293,0.768 0,1.061 l 0.476,0.477 c -0.206,0.325 -0.36,0.684 -0.447,1.07 h -0.672 c -0.414,0 -0.75,0.336 -0.75,0.75 0,0.414 0.336,0.75 0.75,0.75 h 0.672 c 0.087,0.386 0.241,0.746 0.447,1.07 l -0.476,0.477 c -0.293,0.293 -0.293,0.768 0,1.061 0.146,0.146 0.338,0.22 0.53,0.22 0.192,0 0.384,-0.073 0.53,-0.22 l 0.476,-0.477 c 0.325,0.206 0.684,0.36 1.07,0.447 V 21 c 0,0.414 0.336,0.75 0.75,0.75 0.414,0 0.75,-0.336 0.75,-0.75 v -0.672 c 0.386,-0.087 0.745,-0.241 1.07,-0.447 l 0.476,0.477 c 0.146,0.146 0.338,0.22 0.53,0.22 0.192,0 0.384,-0.073 0.53,-0.22 0.293,-0.293 0.293,-0.768 0,-1.061 L 19.38,18.82 c 0.206,-0.325 0.36,-0.684 0.447,-1.07 h 0.672 c 0.414,0 0.75,-0.336 0.75,-0.75 0,-0.414 -0.336,-0.75 -0.75,-0.75 z m -2.65,2.1 c -0.006,0.006 -0.008,0.014 -0.013,0.02 -0.346,0.337 -0.816,0.547 -1.336,0.547 -0.52,0 -0.991,-0.21 -1.336,-0.547 -0.006,-0.006 -0.008,-0.014 -0.013,-0.02 -0.005,-0.006 -0.014,-0.008 -0.02,-0.013 -0.337,-0.346 -0.547,-0.817 -0.547,-1.336 0,-0.519 0.21,-0.99 0.547,-1.336 0.006,-0.006 0.014,-0.007 0.02,-0.013 0.006,-0.006 0.008,-0.014 0.013,-0.02 0.346,-0.337 0.816,-0.547 1.336,-0.547 0.52,0 0.991,0.21 1.336,0.547 0.006,0.006 0.008,0.014 0.013,0.02 0.005,0.006 0.014,0.008 0.02,0.013 0.337,0.346 0.547,0.816 0.547,1.336 0,0.52 -0.21,0.991 -0.547,1.336 -0.006,0.006 -0.014,0.007 -0.02,0.013 z m -6.35,-6.6 c -2.619,0 -4.75,-2.131 -4.75,-4.75 0,-2.619 2.131,-4.75 4.75,-4.75 2.619,0 4.75,2.131 4.75,4.75 0,2.619 -2.131,4.75 -4.75,4.75 z m 0,-8 c -1.792,0 -3.25,1.458 -3.25,3.25 0,1.792 1.458,3.25 3.25,3.25 1.792,0 3.25,-1.458 3.25,-3.25 0,-1.792 -1.458,-3.25 -3.25,-3.25 z M 11.221,21 c 0,-0.414 -0.336,-0.75 -0.75,-0.75 h -4.97 c -0.689,0 -1.25,-0.561 -1.25,-1.25 0,-2.344 1.907,-4.25 4.25,-4.25 h 2 c 0.414,0 0.75,-0.336 0.75,-0.75 0,-0.414 -0.336,-0.75 -0.75,-0.75 h -2 c -3.17,0 -5.75,2.579 -5.75,5.75 0,1.517 1.233,2.75 2.75,2.75 h 4.97 c 0.414,0 0.75,-0.336 0.75,-0.75 z"
     id="path1"
     style="stroke:none;stroke-opacity:1;fill-opacity:1" />
</svg>
